# xmcd CD database file
#
# Track frame offsets:
#	150
#	13925
#	28145
#	42554
#	54986
#	69221
#	81808
#	96405
#	110511
#	124307
#	139500
#	154093
#	168412
#	182228
#	195488
#	209249
#
# Disc length: 2950 seconds
#
# Revision: 1
# Processed by: cddbd v1.5.2PL0 Copyright (c) Steve Scherf et al.
# Submitted via: CDex 1.70beta2
#
DISCID=e70b8410
DTITLE=Count Basie - Side by Side
DYEAR=2007
DGENRE=Jazz
TTITLE0=One O'Clock Jump
TTITLE1=Jumpin' At The Woodside
TTITLE2=Cherokee
TTITLE3=Shorty George
TTITLE4=You Can Depend On Me
TTITLE5=Swinging The Blues
TTITLE6=Good Morning Blues
TTITLE7=Listen My Children And You Shall Hear
TTITLE8=Time Out
TTITLE9=Broadway
TTITLE10=Topsy
TTITLE11=Don't You Miss Your Baby
TTITLE12=Doggin' Around
TTITLE13=London Bridge Is Falling Down
TTITLE14=Boogie Woogie
TTITLE15=Dark Rapture
EXTD=YEAR: 2007
EXTT0=
EXTT1=
EXTT2=
EXTT3=
EXTT4=
EXTT5=
EXTT6=
EXTT7=
EXTT8=
EXTT9=
EXTT10=
EXTT11=
EXTT12=
EXTT13=
EXTT14=
EXTT15=
PLAYORDER=
